<svg width="54" height="60" viewBox="0 0 54 60" fill="none" xmlns="http://www.w3.org/2000/svg">
<path d="M54 51.4268H33.336C33.0004 50.5303 32.4597 49.7161 31.753 49.0431C31.0463 48.3701 30.1914 47.8551 29.25 47.5355V36.4273H45C46.1931 36.4262 47.337 35.9743 48.1807 35.1709C49.0243 34.3674 49.4988 33.278 49.5 32.1418V4.28557C49.4988 3.14931 49.0243 2.05992 48.1807 1.25647C47.337 0.453013 46.1931 0.00113455 45 0H9C7.80689 0.00113455 6.66299 0.453013 5.81934 1.25647C4.97568 2.05992 4.50119 3.14931 4.5 4.28557V32.1418C4.50119 33.278 4.97568 34.3674 5.81934 35.1709C6.66299 35.9743 7.80689 36.4262 9 36.4273H24.75V47.5355C23.8086 47.8551 22.9537 48.3701 22.247 49.0431C21.5403 49.7161 20.9996 50.5303 20.664 51.4268H0V55.7124H20.664C21.1222 56.965 21.9783 58.0507 23.1137 58.819C24.249 59.5872 25.6072 60 27 60C28.3928 60 29.751 59.5872 30.8863 58.819C32.0217 58.0507 32.8778 56.965 33.336 55.7124H54V51.4268ZM45 21.4278H9V14.9995H45V21.4278ZM45 4.28557V10.7139H9V4.28557H45ZM9 25.7134H45V32.1418H9V25.7134ZM27 55.7124C26.555 55.7124 26.12 55.5867 25.75 55.3513C25.38 55.1158 25.0916 54.7812 24.9213 54.3896C24.751 53.9981 24.7064 53.5672 24.7932 53.1516C24.88 52.7359 25.0943 52.3541 25.409 52.0544C25.7237 51.7548 26.1246 51.5507 26.561 51.468C26.9975 51.3853 27.4499 51.4278 27.861 51.5899C28.2722 51.7521 28.6236 52.0268 28.8708 52.3792C29.118 52.7315 29.25 53.1458 29.25 53.5696C29.25 54.1379 29.0129 54.683 28.591 55.0848C28.169 55.4867 27.5967 55.7124 27 55.7124Z" fill="#2ACC92"/>
</svg>
