<svg width="48" height="69" viewBox="0 0 48 69" fill="none" xmlns="http://www.w3.org/2000/svg">
<path d="M35.083 25.8204H21.8841V0H35.083C42.2061 0 48 5.79025 48 12.9087C48 20.0272 42.2061 25.8204 35.083 25.8204ZM26.1159 21.5913H35.083C39.8729 21.5913 43.7682 17.6956 43.7682 12.9116C43.7682 8.12763 39.8701 4.232 35.083 4.232H26.1159V21.5913ZM26.1159 25.8204H12.9199C5.79682 25.8204 0.00287663 20.0301 0.00287663 12.9116C0.00287663 5.79313 5.79682 0 12.9199 0H26.1188V25.8204H26.1159ZM12.9199 4.22912C8.12994 4.22912 4.2347 8.12475 4.2347 12.9087C4.2347 17.6927 8.12994 21.5913 12.9199 21.5913H21.887V4.22912H12.9199ZM26.1159 47.4087H12.9199C5.79682 47.4087 0.00287663 41.6185 0.00287663 34.5C0.00287663 27.3815 5.79682 21.5913 12.9199 21.5913H26.1188V47.4087H26.1159ZM12.9199 25.8204C8.12994 25.8204 4.2347 29.716 4.2347 34.5C4.2347 39.284 8.13281 43.1796 12.9199 43.1796H21.887V25.8204H12.9199ZM12.9889 69C5.82847 69 0 63.2098 0 56.0913C0 48.9728 5.79395 43.1825 12.917 43.1825H26.1159V55.9504C26.1159 63.1465 20.227 69 12.9889 69ZM12.9199 47.4087C10.6174 47.4118 8.41002 48.3272 6.78189 49.9543C5.15377 51.5814 4.23775 53.7873 4.2347 56.0884C4.2347 60.8753 8.16158 64.768 12.9918 64.768C17.8968 64.768 21.8898 60.812 21.8898 55.9475V47.4087H12.9199ZM35.083 47.4087H34.8011C27.678 47.4087 21.8841 41.6185 21.8841 34.5C21.8841 27.3815 27.678 21.5913 34.8011 21.5913H35.083C42.2061 21.5913 48 27.3815 48 34.5C48 41.6185 42.2061 47.4087 35.083 47.4087ZM34.804 25.8204C30.014 25.8204 26.1188 29.716 26.1188 34.5C26.1188 39.284 30.0169 43.1796 34.804 43.1796H35.0859C39.8758 43.1796 43.7711 39.284 43.7711 34.5C43.7711 29.716 39.8729 25.8204 35.0859 25.8204H34.804Z" fill="#2ACC92"/>
</svg>
