<svg width="70" height="70" viewBox="0 0 70 70" fill="none" xmlns="http://www.w3.org/2000/svg">
<path d="M55.4668 25.2178C52.3359 16.9531 44.3584 11.0742 35.0137 11.0742C25.6689 11.0742 17.6914 16.9463 14.5605 25.2109C8.6748 26.7627 4.34082 32.1426 4.375 38.5273C4.41602 45.6641 9.95313 51.4678 16.9258 52.0898C17.2471 52.1172 17.5205 51.8643 17.5205 51.543V47.4141C17.5205 47.1406 17.3154 46.9082 17.042 46.874C15.1963 46.6416 13.4531 45.835 12.1133 44.5156C10.4727 42.9092 9.57031 40.749 9.57031 38.459C9.57031 36.5449 10.1924 34.7402 11.3613 33.2363C12.5029 31.7734 14.1094 30.7139 15.8799 30.249L18.4707 29.5654L19.4209 27.0566C20.0088 25.498 20.8291 24.0352 21.8613 22.7158C22.8799 21.4033 24.0898 20.2549 25.4434 19.2979C28.2529 17.3223 31.5615 16.2764 35.0137 16.2764C38.4658 16.2764 41.7744 17.3223 44.584 19.3047C45.9443 20.2617 47.1475 21.4102 48.166 22.7227C49.1982 24.042 50.0186 25.5049 50.6064 27.0635L51.5498 29.5654L54.1338 30.249C57.8389 31.2334 60.4297 34.6035 60.4297 38.4521C60.4297 40.749 59.5273 42.9023 57.8867 44.5088C56.5537 45.8213 54.8174 46.6348 52.9717 46.8672C52.6982 46.9014 52.5 47.1338 52.5 47.4072V51.543C52.5 51.8643 52.7803 52.1172 53.1016 52.0898C60.0537 51.4609 65.5771 45.6641 65.625 38.541C65.666 32.1562 61.3389 26.7764 55.4668 25.2178V25.2178Z" fill="#2ACC92"/>
<path d="M48.125 30.4883H21.875C21.5742 30.4883 21.3281 30.7344 21.3281 31.0352V58.5156C21.3281 58.8164 21.5742 59.0625 21.875 59.0625H48.125C48.4258 59.0625 48.6719 58.8164 48.6719 58.5156V31.0352C48.6719 30.7344 48.4258 30.4883 48.125 30.4883ZM25.7031 34.8633H44.2969V42.8613H25.7031V34.8633ZM44.2969 54.6875H25.7031V46.6895H44.2969V54.6875Z" fill="#2ACC92"/>
<path d="M28.9844 51.1328C28.9844 51.713 29.2148 52.2694 29.6251 52.6796C30.0353 53.0898 30.5917 53.3203 31.1719 53.3203C31.752 53.3203 32.3084 53.0898 32.7187 52.6796C33.1289 52.2694 33.3594 51.713 33.3594 51.1328C33.3594 50.5527 33.1289 49.9963 32.7187 49.586C32.3084 49.1758 31.752 48.9453 31.1719 48.9453C30.5917 48.9453 30.0353 49.1758 29.6251 49.586C29.2148 49.9963 28.9844 50.5527 28.9844 51.1328ZM28.9844 38.9648C28.9844 39.545 29.2148 40.1014 29.6251 40.5116C30.0353 40.9219 30.5917 41.1523 31.1719 41.1523C31.752 41.1523 32.3084 40.9219 32.7187 40.5116C33.1289 40.1014 33.3594 39.545 33.3594 38.9648C33.3594 38.3847 33.1289 37.8283 32.7187 37.418C32.3084 37.0078 31.752 36.7773 31.1719 36.7773C30.5917 36.7773 30.0353 37.0078 29.6251 37.418C29.2148 37.8283 28.9844 38.3847 28.9844 38.9648Z" fill="#2ACC92"/>
</svg>
