<svg width="60" height="60" viewBox="0 0 60 60" fill="none" xmlns="http://www.w3.org/2000/svg">
<path d="M59.1937 13.5712C59.1014 13.2606 58.9308 12.9789 58.6983 12.753C58.4659 12.5271 58.1794 12.3647 57.8662 12.2813C57.5529 12.1959 57.2225 12.1947 56.9085 12.2777C56.5945 12.3606 56.3079 12.5248 56.0775 12.7538L46.2675 22.3425L39.09 20.9062L37.6613 13.755L47.58 4.06125C47.8122 3.83485 47.9818 3.55208 48.0721 3.24057C48.1624 2.92905 48.1703 2.59944 48.0951 2.28394C48.0199 1.96844 47.8642 1.67783 47.6431 1.44052C47.422 1.20321 47.1431 1.02731 46.8338 0.93C45.0309 0.336703 43.1478 0.0230664 41.25 0C30.9113 0 22.5 8.41125 22.5 18.75C22.5 19.9613 22.6425 21.1875 22.9425 22.5375C20.835 24.2738 18.8325 25.77 16.5637 27.465C13.32 29.8875 9.645 32.6287 4.63125 36.8625C3.18983 38.1045 2.03083 39.6406 1.23204 41.3675C0.433249 43.0945 0.0131682 44.9723 0 46.875C0 54.1125 5.8875 60 13.125 60C15.0301 59.994 16.9108 59.5713 18.6352 58.7615C20.3597 57.9518 21.8861 56.7746 23.1075 55.3125C26.4271 51.4139 29.6091 47.4002 32.6475 43.2788C34.305 41.0625 35.7675 39.1125 37.4588 37.0537C38.8088 37.3575 40.0387 37.5 41.25 37.5C51.5887 37.5 60 29.0887 60 18.75C59.9827 16.9939 59.7111 15.2495 59.1937 13.5712ZM13.125 50.625C12.1304 50.625 11.1766 50.2299 10.4734 49.5267C9.77009 48.8234 9.375 47.8696 9.375 46.875C9.375 45.8804 9.77009 44.9266 10.4734 44.2234C11.1766 43.5201 12.1304 43.125 13.125 43.125C14.1196 43.125 15.0734 43.5201 15.7766 44.2234C16.4799 44.9266 16.875 45.8804 16.875 46.875C16.875 47.8696 16.4799 48.8234 15.7766 49.5267C15.0734 50.2299 14.1196 50.625 13.125 50.625V50.625Z" fill="#2ACC92"/>
</svg>
